# xmcd
# Track frame offsets:
# 150
# 11848
# 25193
# 35444
# 49647
# 62611
# 76142
# 88138
# 104710
# 119047
# 131196
# 142965
#
# Disc length: 2032 seconds
# Revision: 4
# Processed by: cddbd v1.5.2PL0 Copyright (c) Steve Scherf et al.
# Submitted via: VisiTrax 2.11.2.271 - For more info visit www.synapsa.com
#
DISCID=a507ee0c
DTITLE=Slim Dusty - Songs My Father Sang To Me
DYEAR=1967
DGENRE=Australian Country
TTITLE0=Granny's Hieland Hame
TTITLE1=Old Love Letters
TTITLE2=Jane O'Hara
TTITLE3=The Old Lantern Waltz
TTITLE4=The Ship That Never Returned
TTITLE5=An Old Fashioned Locket
TTITLE6=It Takes An Irish Heart
TTITLE7=When The Harvest Days Are Over, Jessie Dear
TTITLE8=My Old Kentucky Home
TTITLE9=My Old Pal
TTITLE10=Two Little Girls In Blue
TTITLE11=The Girl I Left Behind Me
EXTD=1967 EMI Music Australia
EXTT0=
EXTT1=
EXTT2=
EXTT3=
EXTT4=
EXTT5=
EXTT6=
EXTT7=
EXTT8=
EXTT9=
EXTT10=
EXTT11=
PLAYORDER=
